<svg width="68" height="44" viewBox="0 0 68 44" fill="none" xmlns="http://www.w3.org/2000/svg">
<path d="M66.5388 20.625L60.3299 12.6697C60.4626 12.4733 60.5623 12.2523 60.5623 12.0067C60.5623 11.2701 59.7323 10.6562 58.7362 10.6316L51.8631 1.84148C51.9295 1.69418 51.9958 1.54687 51.9958 1.39956C51.9958 0.613889 51.1326 0 50.1033 0C49.5057 0 49.0076 0.196441 48.6423 0.515623H35.4277C35.0956 0.196533 34.5975 9.17033e-05 33.9999 9.17033e-05C33.4023 9.17033e-05 32.9043 0.196533 32.5722 0.515715H19.4239C19.0586 0.196533 18.5607 9.17033e-05 17.9629 9.17033e-05C16.9337 9.17033e-05 16.0703 0.613889 16.0703 1.39965C16.0703 1.54696 16.1368 1.71883 16.2032 1.84158L9.26372 10.7546C8.5998 10.9755 8.13484 11.4421 8.13484 12.0068C8.13484 12.0559 8.16806 12.105 8.16806 12.1541L1.56063 20.6005C0.664164 20.7233 0 21.288 0 21.9755C0 22.6385 0.63082 23.2032 1.49418 23.3505L8.33404 32.0916C8.26759 32.2389 8.23437 32.3617 8.23437 32.5336C8.23437 33.1965 8.86519 33.7612 9.72856 33.884L16.1368 42.1094C16.0703 42.2567 16.004 42.4286 16.004 42.6004C16.004 43.3861 16.8673 44 17.8966 44C18.4942 44 18.9923 43.8036 19.3244 43.5089H32.5723C32.9043 43.8035 33.4356 43.9999 33.9999 43.9999C34.5643 43.9999 35.0956 43.8035 35.4277 43.5089H48.7089C49.0408 43.7789 49.5389 43.9508 50.0702 43.9508C51.1326 43.9508 51.9627 43.3124 51.9627 42.5512C51.9627 42.4039 51.9296 42.2812 51.8632 42.1584L58.2714 33.8839C59.1347 33.7612 59.7656 33.1964 59.7656 32.5335C59.7656 32.3862 59.7324 32.2388 59.666 32.0915L66.4726 23.3504C67.3358 23.2277 68 22.6629 68 21.9754C67.9998 21.3125 67.3688 20.7477 66.5388 20.625ZM17.332 39.8504L11.92 32.9018H17.332V39.8504ZM17.332 32.1651H11.92C11.8868 32.067 11.8203 31.9688 11.754 31.8705L17.332 27.5246V32.1651ZM17.332 26.4442L11.0899 31.3303C10.9239 31.2812 10.7578 31.2075 10.5918 31.183L3.68575 22.3437C3.75207 22.221 3.75207 22.0982 3.75207 21.9754C3.75207 21.8527 3.75207 21.7545 3.71885 21.6563L10.1603 13.4063C10.4924 13.3817 10.8243 13.308 11.1232 13.1607L17.3321 17.9242L17.332 26.4442ZM17.332 17.0647L11.6544 12.7188C11.8203 12.5223 11.92 12.2769 11.92 12.0068C11.92 11.9823 11.8868 11.9331 11.8868 11.9086L17.332 10.4599V17.0647ZM17.332 9.67409L11.92 11.1228L17.332 4.19868V9.67409ZM57.8065 13.259L57.9061 13.3817L53.5232 28.7031L45.621 22.5402L57.7733 13.2344L57.8065 13.259ZM34.4648 31.0848L35.8925 32.1651H33.0703L34.4648 31.0848ZM34.4316 30.0535L24.1055 22.221L33.9667 14.4867L44.2597 22.5156L34.4316 30.0535ZM35.0956 30.5937L44.9237 23.0558L53.2908 29.587L52.5605 32.1651H37.1874L35.0956 30.5937ZM49.1737 2.60277C49.3065 2.65191 49.4392 2.70104 49.6053 2.72561L56.7771 11.9577V12.0068C56.7771 12.2769 56.8767 12.5223 57.0428 12.7188L44.9569 22L34.6641 13.971L49.1737 2.60277ZM48.0448 2.40633L33.9667 13.4309L26.8944 7.90631L47.5134 2.40633H48.0448ZM32.7382 2.40633C33.0701 2.65181 33.5017 2.79912 33.9999 2.79912C34.4981 2.79912 34.9296 2.65181 35.2617 2.40633H44.5585L26.1641 7.31699L19.8555 2.40633H32.7382ZM18.3282 2.92195L18.461 2.72561C18.573 2.70443 18.6838 2.67985 18.7931 2.65191L25.1349 7.58722L18.3282 9.40413V2.92195ZM18.3282 10.1898L25.8652 8.17645L33.2695 13.971L23.4083 21.6808L18.3282 17.826V10.1898ZM18.3282 18.6853L22.8438 22.1473L18.3282 25.6585V18.6853ZM18.3282 26.7389L23.541 22.663L33.8007 30.5447L31.6757 32.1651H18.3282V26.7389ZM19.1915 41.5937C18.9923 41.4464 18.7599 41.3482 18.461 41.2745L18.3282 41.1272V32.9018H30.7128L19.3575 41.5937H19.1915ZM35.2949 41.5937C34.9628 41.3728 34.4981 41.2009 33.9999 41.2009C33.5017 41.2009 33.0372 41.3728 32.705 41.5937H20.7519L32.1072 32.9018H36.8553L48.2107 41.5937H35.2949ZM50.1698 40.5133L49.6385 41.2008C49.4726 41.2254 49.3398 41.2744 49.2069 41.3235L38.1504 32.9017H52.3282L50.1698 40.5133ZM51.7634 38.4754L53.3573 32.9018H56.0799L51.7634 38.4754ZM56.0799 32.1651H53.5565L54.1208 30.2255L56.2458 31.8951C56.1795 31.9687 56.1131 32.0669 56.0799 32.1651ZM64.281 22.3192L57.4079 31.183C57.242 31.2321 57.0759 31.2812 56.9099 31.3548L54.3533 29.3415L58.6365 14.3148L64.3141 21.5826C64.281 21.7054 64.2146 21.8281 64.2146 21.9754C64.2146 22.0982 64.2478 22.1964 64.281 22.3192Z" fill="#5A57FF"/>
</svg>
